<?xml version="1.0" encoding="utf-8"?>
<!-- Generator: Adobe Illustrator 26.3.1, SVG Export Plug-In . SVG Version: 6.00 Build 0)  -->
<svg version="1.1" xmlns="http://www.w3.org/2000/svg" xmlns:xlink="http://www.w3.org/1999/xlink" x="0px" y="0px"
	 viewBox="0 0 100 100" style="enable-background:new 0 0 100 100;" xml:space="preserve">
<style type="text/css">
	.st0{display:none;}
	.st1{display:inline;stroke:#000000;stroke-width:0.25;stroke-miterlimit:10;}
	.st2{display:inline;stroke:#000000;stroke-width:0.75;stroke-miterlimit:10;}
	.st3{display:inline;}
</style>
<g id="Layer_1" class="st0">
	<g id="Layer_2_00000085252175936892043330000015909258422740852869_">
		<path class="st1" d="M54.9,51c0.5,0.5,1,1,1.5,1.5c1.2,1.2,2.2,2.4,3,3.9c1.2,2.4,0.7,5.1-1.3,6.9c-0.9,0.8-1.8,1.5-2.7,2.2
			c-2.3,1.8-3.2,4.2-3.1,7c0,0.9,0.2,1.7,0.3,2.6c0.3,1.8,0,3.6-0.6,5.3c-0.8,2.4-2.1,4.6-4,6.3c-2.5,2.1-5.4,2.9-8.6,2.6
			c-2.3-0.2-4.5-1-6.5-2c-3.8-1.9-7.1-4.3-10.1-7.3c-1.7-1.7-3-3.6-3.9-5.9c-1.4-3.8-1-6.3,0.7-9.3s4.1-5.1,7.3-6.3
			c0.8-0.3,1.6-0.4,2.4-0.6c1.3-0.3,2.6-0.7,3.7-1.5c1.7-1,2.7-2.5,3.3-4.3c0.4-1,0.7-2.1,1.1-3.1c1-2.4,3.1-3.8,5.6-3.7
			c1.1,0.1,2.1,0.3,3.1,0.7c1.2,0.5,2.4,1.1,3.6,1.6c0.2,0.1,0.3,0.1,0.5-0.1c0.8-1.1,1.6-2.2,2.3-3.3c2-2.7,3.9-5.4,5.9-8.1
			c1.8-2.5,3.6-5,5.4-7.5c1.7-2.3,3.4-4.6,5-7c0.8-1.2,1.5-2.5,2.3-3.7c0.5-0.8,1-1.6,1.4-2.4c0.1-0.2,0.2-0.3,0.3-0.5
			c-0.2-0.1-0.4-0.3-0.6-0.4c-0.2-0.1-0.2-0.3-0.1-0.4c0.1-0.2,0.3-0.4,0.4-0.6c0.1-0.2,0.3-0.2,0.4-0.1c0.2,0.1,0.3,0.2,0.5,0.4
			c0.2-0.3,0.4-0.6,0.6-1c-0.2-0.1-0.4-0.3-0.6-0.4c-0.2-0.1-0.2-0.3-0.1-0.5s0.3-0.3,0.4-0.5s0.3-0.2,0.4-0.1
			c0.2,0.1,0.3,0.2,0.5,0.4c0.2-0.3,0.4-0.6,0.6-1c-0.2-0.1-0.4-0.3-0.6-0.4c-0.2-0.1-0.2-0.3-0.1-0.5s0.3-0.3,0.4-0.5
			c0.2-0.2,0.3-0.2,0.5-0.1c0.1,0.1,0.3,0.2,0.5,0.3c0.2-0.3,0.3-0.6,0.5-0.8c0.2-0.3,0.4-0.6,0.5-0.9c0.3-0.5,0.8-0.6,1.3-0.3
			c1.5,1.1,3,2.1,4.6,3.2c0.5,0.3,0.5,0.8,0.1,1.3s-0.9,1-1.3,1.6c0.2,0.1,0.3,0.2,0.5,0.4c0.2,0.1,0.2,0.3,0.1,0.5
			s-0.3,0.4-0.4,0.6c-0.1,0.2-0.3,0.2-0.5,0.1c-0.2-0.1-0.4-0.3-0.6-0.4c-0.2,0.3-0.5,0.6-0.7,0.9c0.2,0.1,0.3,0.2,0.5,0.4
			c0.2,0.1,0.2,0.3,0.1,0.5s-0.3,0.4-0.4,0.6s-0.3,0.2-0.4,0.1c-0.2-0.1-0.4-0.3-0.6-0.4c-0.2,0.3-0.5,0.6-0.7,0.9
			c0.2,0.1,0.4,0.3,0.5,0.4c0.2,0.1,0.2,0.3,0.1,0.4l0,0c-0.2,0.2-0.4,0.6-0.6,0.7c-0.2,0-0.5-0.3-0.8-0.4c-0.2,0.2-0.4,0.5-0.6,0.7
			c-1.4,1.7-2.8,3.3-4.1,5c-1.8,2.4-3.4,4.9-5.1,7.4c-1.7,2.4-3.3,4.9-5,7.3c-1,1.5-2,3-3.1,4.5c-1.7,2.5-3.4,5-5.1,7.5
			C54.9,50.9,54.9,50.9,54.9,51z M50,47.9c-0.6-0.3-1.2-0.6-1.8-0.9c-1.4-0.7-2.8-1.2-4.4-1.4c-2.7-0.4-5,0.9-6,3.4
			c-0.4,1-0.7,2.1-1.1,3.1c-0.6,1.7-1.5,3.1-2.9,4.1c-1.3,0.9-2.7,1.4-4.2,1.8c-0.7,0.2-1.5,0.3-2.2,0.5c-3.5,1.3-6.2,3.6-7.8,7
			c-1.1,2.2-1.3,4.5-0.8,6.8c0.5,2,1.4,3.8,2.6,5.4c1.3,1.7,2.8,3.2,4.5,4.5c2.5,2,5.1,3.7,8,5c2.1,0.9,4.3,1.6,6.7,1.6
			c3.5,0,6.3-1.3,8.6-4c1.3-1.5,2.2-3.3,2.7-5.2c0.4-1.6,0.6-3.3,0.3-5C52,73.7,52,72.8,52,71.8c0-2.6,0.9-4.8,2.9-6.5
			c0.8-0.7,1.7-1.3,2.5-2c0.7-0.6,1.4-1.3,1.8-2.2c0.8-1.8,0.6-3.6-0.4-5.3c-1.1-1.7-2.4-3.2-4-4.5c0,0-0.1-0.1-0.2-0.1
			c-0.2,0.3-0.4,0.6-0.6,0.9c-1.4,2-2.7,4-4.1,6c-0.3,0.4-0.7,0.5-1.1,0.3c-0.1,0-0.1-0.1-0.2-0.1c-0.3,0.3-0.4,0.5-0.2,1
			c1.1,2.8-1.1,5.8-4.2,5.7c-0.2,0-0.3,0-0.5,0.2c-1.3,1.9-2.6,3.7-3.9,5.6c-0.1,0.1-0.1,0.2-0.2,0.3c0.1,0.1,0.2,0.1,0.3,0.2
			c1.1,0.8,2.2,1.5,3.2,2.3c0.6,0.4,0.7,0.8,0.3,1.4c-0.3,0.4-0.6,0.9-0.9,1.3c-0.4,0.5-0.8,0.6-1.3,0.2c-3.5-2.4-6.9-4.9-10.4-7.3
			c-0.5-0.3-0.6-0.8-0.2-1.3c0.3-0.4,0.6-0.9,0.9-1.3c0.4-0.6,0.8-0.6,1.4-0.2c1.1,0.8,2.2,1.5,3.3,2.3c0.1,0.1,0.2,0.1,0.3,0.2
			c0.1-0.1,0.1-0.1,0.1-0.1c1.4-1.9,2.7-3.9,4.1-5.8c0.1-0.1,0.1-0.3,0-0.4c-1.3-3,0.9-6.1,4.2-5.9c0.1,0,0.2-0.1,0.3-0.1
			c0.1-0.1,0.2-0.3,0.3-0.4c-0.5-0.5-0.6-0.9-0.3-1.2c0.9-1.2,1.8-2.5,2.7-3.7C48.5,50.1,49.2,49,50,47.9z M73.2,23.4l0.1,0.1
			c0.1-0.1,0.2-0.1,0.2-0.2c1.4-1.7,2.7-3.3,4.1-5c1.8-2.2,3.6-4.3,5.4-6.5c0.3-0.3,0.2-0.6-0.1-0.9c-1.5-1-2.9-2.1-4.4-3.1
			c-0.4-0.3-0.7-0.2-0.9,0.2c-0.5,0.8-1,1.7-1.5,2.6c-1.4,2.4-2.8,4.7-4.2,7.1c-0.6,1.1-1.3,2.2-1.9,3.3c0,0.1,0,0.1,0,0.2
			c0.1,0,0.2-0.1,0.2-0.1c1.3-1.8,2.6-3.6,3.8-5.4c0.1-0.1,0.1-0.2,0-0.4c-0.1-0.4,0.2-0.7,0.6-0.6c0.1,0,0.1,0,0.2,0.1
			c0.2-0.4,0.4-0.7,0.6-1.1c0.1-0.1,0-0.2,0-0.4s0-0.4,0.1-0.5s0.3-0.1,0.5-0.1c0.1,0,0.1,0.1,0.2,0.1c0.2-0.4,0.5-0.8,0.7-1.3
			c0-0.1,0-0.2,0-0.2c-0.1-0.3,0-0.6,0.3-0.6c0.2-0.1,0.5,0.1,0.6,0.3c0.1,0.3-0.1,0.5-0.4,0.6c-0.1,0-0.2,0.1-0.3,0.2
			c-0.4,0.8-0.8,1.6-1.3,2.4c-1.4,2.6-2.8,5.2-4.2,7.9c-0.1,0.2-0.1,0.3,0.1,0.4s0.3,0.2,0.4,0c1.8-2,3.6-4,5.3-6
			c0.4-0.5,0.8-1,1.2-1.4c0.4-0.4,0.8-0.8,1.2-1.3c0.1-0.1,0.1-0.2,0.1-0.3c0-0.3,0.1-0.6,0.4-0.6s0.5,0.2,0.5,0.4
			c0,0.3-0.2,0.5-0.5,0.5c-0.1,0-0.2,0-0.2,0c-0.3,0.3-0.6,0.7-1,1.1c0,0.1,0.1,0.1,0.1,0.1c0.2,0.1,0.3,0.3,0.2,0.5
			c-0.1,0.2-0.3,0.3-0.5,0.3c-0.1,0-0.1,0-0.2,0.1c-0.3,0.4-0.6,0.7-0.9,1.1c0.3,0.4,0.2,0.9-0.2,0.9c-0.2,0-0.3,0.1-0.4,0.2
			c-1.2,1.7-2.5,3.5-3.7,5.2C73.3,23.2,73.2,23.3,73.2,23.4z M36.4,69.2c-0.3,0.4-0.6,0.8-0.9,1.2c0,0-0.1,0-0.1-0.1
			C35.7,69.9,36,69.5,36.4,69.2C36.2,69,36.2,69,36.2,69c-1.2-0.8-2.4-1.7-3.5-2.5c-0.3-0.2-0.6-0.1-0.8,0.2
			c-0.3,0.4-0.6,0.9-0.9,1.3s-0.2,0.7,0.2,1c3.4,2.4,6.9,4.8,10.3,7.2c0.4,0.3,0.7,0.2,0.9-0.2c0.3-0.4,0.6-0.8,0.9-1.3
			c0.3-0.4,0.2-0.7-0.2-1c-1.1-0.8-2.2-1.5-3.3-2.3c-0.1-0.1-0.2-0.1-0.3-0.2c-0.2,0.2-0.3,0.4-0.5,0.7c-0.3,0.5-0.3,0.5-0.6,0.5
			c0.3-0.4,0.6-0.8,0.9-1.3c-0.2-0.1-0.3-0.2-0.5-0.3c-0.3,0.4-0.6,0.8-0.9,1.2l-0.1-0.1c0.3-0.4,0.6-0.8,0.9-1.2
			c-0.2-0.1-0.3-0.2-0.5-0.3c-0.1,0.2-0.2,0.3-0.3,0.4s-0.2,0.3-0.3,0.4s-0.2,0.2-0.3,0.3l-0.1-0.1c0.3-0.4,0.6-0.8,0.8-1.2
			c-0.2-0.1-0.3-0.2-0.4-0.3c-0.2,0.2-0.3,0.4-0.5,0.6C36.7,71,36.7,71,36.6,71c0.3-0.4,0.6-0.8,0.9-1.2c-0.1-0.1-0.1-0.1-0.2-0.1
			c-0.2-0.2-0.4-0.2-0.5,0.1c-0.1,0.3-0.3,0.5-0.5,0.7c-0.1,0.1-0.1,0.1-0.2,0.2c0,0-0.1,0-0.1-0.1c0.3-0.4,0.6-0.8,0.9-1.2
			C36.7,69.4,36.6,69.3,36.4,69.2z M44.3,57.6c-2.3,0.1-3.6,2.4-2.9,4.1C42.4,60.4,43.4,59,44.3,57.6z M47.5,59.9
			c-1,1.4-1.9,2.8-2.9,4.1C46.5,64,48.2,62,47.5,59.9z M37.1,69.2c0.1-0.1,0.2-0.2,0.2-0.3c1.2-1.7,2.4-3.4,3.6-5.1
			c0.3-0.4,0.3-0.5-0.1-0.8c-1.4,2-2.8,4-4.2,5.9C36.8,69,36.9,69.1,37.1,69.2z M43.7,65c-0.5-0.2-0.5-0.2-0.8,0.2
			c-1.2,1.7-2.4,3.4-3.6,5.1c-0.1,0.1-0.1,0.2-0.2,0.3c0.2,0.1,0.3,0.2,0.4,0.3C40.9,68.9,42.3,67,43.7,65z M41.3,63.6
			c-1.4,1.9-2.7,3.9-4.1,5.8c0.2,0.1,0.3,0.2,0.4,0.3c1.3-1.9,2.7-3.8,4-5.7C41.6,63.8,41.5,63.7,41.3,63.6z M42.4,64.5
			c-1.3,1.9-2.7,3.8-4,5.7c0.2,0.1,0.3,0.2,0.4,0.3c1.4-1.9,2.7-3.8,4.1-5.8C42.8,64.6,42.6,64.6,42.4,64.5z M45.9,58
			c-0.4-0.3-0.5-0.3-0.8,0.1c-1,1.5-2,2.9-3.1,4.4c-0.3,0.4-0.3,0.5,0.2,0.7C43.5,61.4,44.7,59.7,45.9,58z M41.8,62.5
			c1.1-1.6,2.3-3.2,3.4-4.9c-0.6-0.1-0.6-0.1-0.9,0.3c-0.9,1.2-1.7,2.5-2.6,3.7C41.4,62.1,41.4,62.1,41.8,62.5z M43.8,63.9
			c0.5,0.2,0.6,0.2,0.8-0.2c0.9-1.2,1.7-2.5,2.6-3.7c0.3-0.4,0.3-0.5-0.1-0.9C46,60.7,44.9,62.3,43.8,63.9z M43,63.7
			c0.5,0.3,0.5,0.3,0.7-0.1c1-1.5,2-2.9,3.1-4.4c0.3-0.4,0.3-0.4-0.2-0.7C45.5,60.2,44.3,61.9,43,63.7z M38.3,70.1
			c1.3-1.9,2.7-3.8,4-5.7c-0.1-0.1-0.3-0.2-0.4-0.3c-1.3,1.9-2.7,3.8-4,5.7C38,69.9,38.1,70,38.3,70.1z M42.4,63.3
			c0.1,0.1,0.3,0.2,0.4,0.3c1.2-1.8,2.5-3.5,3.7-5.3c-0.1-0.1-0.3-0.2-0.4-0.3C44.9,59.8,43.7,61.5,42.4,63.3z M71.2,22
			c1.2-2.2,2.4-4.4,3.5-6.6c0,0,0,0-0.1-0.1c-0.1,0.1-0.3,0.3-0.4,0.4c-0.8,1.3-1.5,2.6-2.3,3.9c-0.4,0.7-0.8,1.3-1.2,2
			C70.9,21.8,71,21.9,71.2,22z M77,17C77,17,76.9,17,77,17c-1.7,1.8-3.4,3.6-5.1,5.5c0.2,0.1,0.3,0.2,0.4,0.3
			c0.1-0.1,0.1-0.1,0.1-0.1c1.4-1.7,2.8-3.5,4.3-5.2C76.9,17.4,76.9,17.2,77,17z M44.2,64.6c1.1,0.2,2.7-0.5,3.4-1.6
			c0.8-1.2,1-2.9,0.4-3.8c-0.2,0.2-0.2,0.2-0.1,0.5c0.7,2.3-0.9,4.5-3.3,4.6C44.4,64.4,44.3,64.4,44.2,64.6z M44.8,57
			c-1.1-0.3-2.7,0.5-3.5,1.6s-0.9,2.9-0.3,3.8c0.2-0.1,0.2-0.3,0.1-0.5c-0.7-2.2,0.9-4.6,3.2-4.6C44.6,57.3,44.7,57.2,44.8,57z
			 M76.9,17.7L76.9,17.7c-1.5,1.7-2.9,3.5-4.3,5.2c0.2,0.1,0.3,0.2,0.4,0.3C74.3,21.4,75.6,19.6,76.9,17.7z M70.6,21.6
			c1.2-2,2.4-4,3.5-5.9l0,0c-1.3,1.9-2.6,3.8-4,5.6C70.3,21.4,70.4,21.5,70.6,21.6z M68.6,24.7c-0.6,0.9-1.2,1.7-1.8,2.6
			c0.2,0.1,0.3,0.2,0.4,0.3c0.6-0.9,1.2-1.7,1.8-2.6C68.9,24.9,68.8,24.8,68.6,24.7z M70.5,26c-0.6,0.9-1.2,1.7-1.8,2.6
			c0.2,0.1,0.3,0.2,0.4,0.3c0.6-0.9,1.2-1.7,1.8-2.6C70.7,26.2,70.6,26.1,70.5,26z M65.3,30.4c0.6-0.8,1.2-1.7,1.7-2.5
			c-0.2-0.1-0.3-0.2-0.4-0.3c-0.6,0.8-1.2,1.7-1.7,2.5C65,30.2,65.2,30.3,65.3,30.4z M67.1,31.6c0.6-0.8,1.2-1.7,1.7-2.5
			c-0.2-0.1-0.3-0.2-0.4-0.3c-0.6,0.8-1.2,1.6-1.7,2.5C66.8,31.4,67,31.5,67.1,31.6z M70.5,22c-0.6,0.8-1.1,1.6-1.7,2.4
			c0.2,0.1,0.3,0.2,0.4,0.3c0.6-0.8,1.1-1.6,1.7-2.4C70.8,22.2,70.7,22.1,70.5,22z M72.4,23.2c-0.6,0.8-1.1,1.6-1.7,2.4
			c0.2,0.1,0.3,0.2,0.4,0.3c0.5-0.8,1.1-1.5,1.6-2.3v-0.2C72.6,23.4,72.5,23.3,72.4,23.2z M66.6,27.2c0.6-0.9,1.2-1.7,1.8-2.6
			c-0.2-0.1-0.3-0.2-0.4-0.3c-0.6,0.9-1.2,1.7-1.8,2.6C66.4,27,66.5,27.1,66.6,27.2z M69.8,25.5c-0.6,0.9-1.2,1.7-1.8,2.6
			c0.1,0.1,0.3,0.2,0.4,0.3c0.6-0.9,1.2-1.7,1.8-2.6C70.1,25.7,70,25.6,69.8,25.5z M66.4,27.4c-0.2-0.1-0.3-0.2-0.4-0.3
			c-0.6,0.8-1.2,1.6-1.7,2.5c0.1,0.1,0.3,0.2,0.4,0.3C65.3,29.1,65.8,28.3,66.4,27.4z M66.5,31.2c0.6-0.8,1.2-1.7,1.7-2.5
			c-0.2-0.1-0.3-0.2-0.4-0.3c-0.6,0.8-1.2,1.6-1.7,2.5C66.2,31,66.3,31.1,66.5,31.2z M69.9,21.6c-0.6,0.8-1.1,1.6-1.7,2.4
			c0.2,0.1,0.3,0.2,0.4,0.3c0.6-0.8,1.1-1.6,1.7-2.4C70.2,21.7,70.1,21.7,69.9,21.6z M70.5,25.5c0.6-0.8,1.1-1.6,1.7-2.4
			c-0.2-0.1-0.3-0.2-0.4-0.3c-0.6,0.8-1.1,1.6-1.7,2.4C70.2,25.3,70.3,25.4,70.5,25.5z M63.1,32.6c-0.5,0.7-1,1.4-1.5,2.1
			c0.2,0.1,0.3,0.2,0.4,0.3c0.5-0.7,1-1.4,1.5-2.1C63.4,32.8,63.2,32.7,63.1,32.6z M63.8,36.3c0.5-0.7,1-1.4,1.5-2.2
			c-0.2-0.1-0.3-0.2-0.4-0.3c-0.5,0.7-1,1.4-1.5,2.2C63.5,36.1,63.6,36.2,63.8,36.3z M67.8,28c0.6-0.9,1.2-1.7,1.8-2.6
			c-0.1-0.1-0.3-0.2-0.4-0.3c-0.6,0.9-1.2,1.7-1.8,2.6C67.6,27.8,67.7,27.9,67.8,28z M65.9,30.8c0.6-0.8,1.2-1.7,1.7-2.5
			c-0.1-0.1-0.3-0.2-0.4-0.3c-0.6,0.8-1.2,1.6-1.7,2.5C65.6,30.6,65.8,30.7,65.9,30.8z M63.3,32.3c0.2,0.1,0.3,0.2,0.4,0.3
			c0.5-0.7,0.9-1.3,1.4-2c-0.2-0.1-0.3-0.2-0.4-0.3C64.2,31,63.8,31.7,63.3,32.3z M66.5,31.6c-0.5,0.7-0.9,1.3-1.4,2
			c0.1,0.1,0.3,0.2,0.4,0.3c0.5-0.7,0.9-1.3,1.4-2C66.8,31.8,66.6,31.7,66.5,31.6z M63.2,35.9c0.5-0.7,1-1.4,1.5-2.2
			c-0.2-0.1-0.3-0.2-0.4-0.3c-0.5,0.7-1,1.4-1.5,2.2C62.9,35.7,63,35.8,63.2,35.9z M62.5,32.2c-0.5,0.7-1,1.4-1.5,2.2
			c0.2,0.1,0.3,0.2,0.4,0.3c0.5-0.7,1-1.4,1.5-2.2C62.8,32.4,62.6,32.3,62.5,32.2z M71.2,22.4c-0.6,0.8-1.1,1.6-1.7,2.4
			c0.1,0.1,0.3,0.2,0.4,0.3c0.6-0.8,1.1-1.6,1.7-2.4C71.4,22.6,71.3,22.5,71.2,22.4z M61.4,35c-0.4,0.6-0.9,1.2-1.3,1.9
			c0.2,0.1,0.3,0.2,0.4,0.3c0.4-0.6,0.9-1.2,1.3-1.9C61.7,35.2,61.5,35.2,61.4,35z M63.6,36.6c-0.2-0.1-0.3-0.2-0.4-0.3
			c-0.4,0.6-0.9,1.2-1.3,1.9c0.1,0.1,0.2,0.2,0.3,0.2s0.2,0,0.2,0C62.8,37.8,63.2,37.2,63.6,36.6z M59,39.3c0.4-0.6,0.9-1.2,1.3-1.8
			c-0.2-0.1-0.3-0.2-0.4-0.3c-0.4,0.6-0.9,1.2-1.3,1.8C58.7,39.1,58.9,39.2,59,39.3z M61.7,38.5c-0.4,0.6-0.9,1.2-1.3,1.8
			c0.2,0.1,0.3,0.2,0.4,0.3c0.4-0.6,0.9-1.2,1.3-1.8C61.9,38.7,61.8,38.6,61.7,38.5z M65.9,31.2c-0.5,0.7-0.9,1.3-1.4,2
			c0.2,0.1,0.3,0.2,0.4,0.3c0.5-0.7,0.9-1.3,1.4-2C66.2,31.4,66,31.3,65.9,31.2z M64.1,29.9c-0.5,0.7-0.9,1.3-1.4,2
			c0.1,0.1,0.3,0.2,0.4,0.3c0.5-0.7,0.9-1.3,1.4-2C64.4,30.1,64.2,30,64.1,29.9z M62.6,35.5c0.5-0.7,1-1.4,1.5-2.2
			c-0.1-0.1-0.3-0.2-0.4-0.3c-0.5,0.7-1,1.4-1.5,2.2C62.3,35.3,62.4,35.4,62.6,35.5z M59.9,36.8c0.4-0.6,0.9-1.2,1.3-1.9
			c-0.1-0.1-0.3-0.2-0.4-0.3c-0.4,0.6-0.9,1.2-1.3,1.9C59.6,36.6,59.7,36.7,59.9,36.8z M62.6,35.9c-0.4,0.6-0.9,1.2-1.3,1.9
			c0.1,0.1,0.3,0.2,0.4,0.3c0.4-0.6,0.9-1.2,1.3-1.9C62.8,36.1,62.7,36,62.6,35.9z M57.6,41.3c0.4-0.6,0.8-1.1,1.2-1.7
			c-0.2-0.1-0.3-0.2-0.4-0.3c-0.4,0.6-0.8,1.1-1.2,1.7C57.3,41.1,57.5,41.2,57.6,41.3z M59.4,42.6c0.4-0.6,0.8-1.1,1.2-1.7
			c-0.2-0.1-0.3-0.2-0.4-0.3c-0.4,0.6-0.8,1.1-1.2,1.7C59.1,42.4,59.3,42.4,59.4,42.6z M59.3,36.8c-0.4,0.6-0.9,1.2-1.3,1.8
			c0.1,0.1,0.3,0.2,0.4,0.3c0.4-0.6,0.9-1.2,1.3-1.8C59.5,37,59.4,36.9,59.3,36.8z M61.1,38c-0.4,0.6-0.9,1.2-1.3,1.8
			c0.2,0.1,0.3,0.2,0.4,0.3c0.4-0.6,0.9-1.2,1.3-1.8C61.3,38.2,61.2,38.1,61.1,38z M65.3,30.8c-0.5,0.7-0.9,1.3-1.4,2
			c0.1,0.1,0.3,0.2,0.4,0.3c0.5-0.7,0.9-1.3,1.4-2C65.6,30.9,65.4,30.9,65.3,30.8z M57,40.8c0.4-0.6,0.8-1.1,1.2-1.7
			c-0.2-0.1-0.3-0.2-0.4-0.3c-0.4,0.6-0.8,1.1-1.2,1.7C56.7,40.7,56.9,40.7,57,40.8z M60,40.4c-0.2-0.1-0.3-0.2-0.4-0.3
			c-0.4,0.6-0.8,1.1-1.2,1.7c0.1,0.1,0.3,0.2,0.4,0.3C59.2,41.6,59.6,41,60,40.4z M61.1,37.6c0.5-0.6,0.9-1.3,1.3-1.9
			c-0.1-0.1-0.3-0.2-0.4-0.3c-0.4,0.6-0.9,1.2-1.3,1.9C60.8,37.4,60.9,37.5,61.1,37.6z M56.4,43.1c0.4-0.5,0.7-1,1-1.5
			c-0.2-0.1-0.3-0.2-0.4-0.3c-0.4,0.5-0.7,1-1,1.5C56.1,42.8,56.2,42.9,56.4,43.1z M58.8,42.5c-0.4,0.5-0.7,1-1,1.5
			c0.2,0.1,0.3,0.2,0.4,0.3c0.4-0.5,0.7-1,1-1.5C59.1,42.7,58.9,42.6,58.8,42.5z M59.6,39.7c0.4-0.6,0.9-1.2,1.3-1.8
			c-0.1-0.1-0.3-0.2-0.4-0.3c-0.4,0.6-0.9,1.2-1.3,1.8C59.3,39.6,59.4,39.6,59.6,39.7z M56.2,43.4c-0.2-0.1-0.3-0.2-0.4-0.3
			c-0.3,0.5-0.7,0.9-1,1.4c0.2,0.1,0.3,0.2,0.4,0.3C55.5,44.3,55.9,43.8,56.2,43.4z M56.5,45.7c0.2,0.1,0.3,0.2,0.4,0.3
			c0.3-0.5,0.7-0.9,1-1.4c-0.1-0.1-0.3-0.2-0.4-0.3C57.2,44.8,56.9,45.3,56.5,45.7z M54.6,44.8c-0.3,0.5-0.6,0.9-1,1.4
			c0.2,0.1,0.3,0.2,0.4,0.3c0.3-0.5,0.6-0.9,1-1.4C54.8,45,54.7,44.9,54.6,44.8z M55.4,47.4c0.2,0.1,0.3,0.2,0.4,0.3
			c0.3-0.5,0.6-0.9,1-1.4c-0.2-0.1-0.3-0.2-0.4-0.3C56,46.5,55.7,46.9,55.4,47.4z M59,39.7c-0.4,0.6-0.8,1.1-1.2,1.7
			c0.1,0.1,0.3,0.2,0.4,0.3c0.4-0.6,0.8-1.1,1.2-1.7C59.3,39.9,59.1,39.8,59,39.7z M56.4,40.8c-0.4,0.5-0.7,1-1,1.5
			c0.1,0.1,0.3,0.2,0.4,0.3c0.4-0.5,0.7-1,1-1.5C56.7,41,56.5,40.9,56.4,40.8z M57.1,43.6c0.1,0.1,0.3,0.2,0.4,0.3
			c0.4-0.5,0.7-1,1-1.5c-0.2-0.1-0.3-0.2-0.4-0.3C57.8,42.6,57.5,43.1,57.1,43.6z M56.9,43.9c-0.3,0.5-0.7,1-1,1.4
			c0.1,0.1,0.3,0.2,0.4,0.3c0.3-0.5,0.7-1,1-1.4C57.2,44.1,57.1,44,56.9,43.9z M54.5,44.3c0.3-0.5,0.7-1,1-1.4
			c-0.2-0.1-0.3-0.2-0.4-0.3c-0.3,0.5-0.7,0.9-1,1.4C54.3,44.1,54.4,44.2,54.5,44.3z M58.8,36.4c-0.4,0.6-0.9,1.2-1.3,1.8
			c0.1,0.1,0.2,0.2,0.3,0.2c0.4-0.6,0.9-1.2,1.3-1.8C59,36.6,58.9,36.5,58.8,36.4z M53.9,44.3c-0.3,0.5-0.6,0.9-1,1.4
			c0.2,0.1,0.3,0.2,0.4,0.3c0.3-0.5,0.6-0.9,1-1.4C54.2,44.5,54.1,44.4,53.9,44.3z M55.2,47.3c0.3-0.5,0.6-0.9,1-1.4
			c-0.2-0.1-0.3-0.2-0.4-0.3c-0.3,0.5-0.6,0.9-1,1.4C54.9,47.1,55,47.2,55.2,47.3z M52.3,47.5c0.3-0.4,0.6-0.8,0.9-1.2
			c-0.2-0.1-0.3-0.2-0.4-0.3c-0.3,0.4-0.6,0.8-0.9,1.2C52,47.3,52.2,47.4,52.3,47.5z M52.9,48c0.3-0.4,0.6-0.8,0.9-1.2
			c-0.2-0.1-0.3-0.2-0.4-0.3c-0.3,0.4-0.6,0.8-0.9,1.2C52.7,47.8,52.8,47.9,52.9,48z M55.6,48c-0.2-0.1-0.3-0.2-0.4-0.3
			c-0.3,0.4-0.6,0.8-0.9,1.2c0.2,0.1,0.3,0.2,0.4,0.3C55,48.8,55.3,48.4,55.6,48z M52.8,45.6c0.3-0.5,0.6-0.9,1-1.4
			c-0.1-0.1-0.3-0.2-0.4-0.3c-0.3,0.5-0.6,0.9-1,1.4C52.5,45.4,52.6,45.5,52.8,45.6z M62,31.9c-0.5,0.7-1,1.4-1.5,2.2
			c0.1,0.1,0.2,0.1,0.3,0.2c0.5-0.7,1-1.4,1.5-2.2C62.2,32,62.1,31.9,62,31.9z M61.3,40.9c0.4-0.6,0.9-1.2,1.3-1.8
			c-0.1-0.1-0.2-0.2-0.3-0.2c-0.4,0.6-0.9,1.2-1.3,1.8C61.1,40.8,61.2,40.9,61.3,40.9z M55.2,42.2c0.4-0.5,0.7-1,1-1.5
			c-0.1-0.1-0.2-0.2-0.4-0.3c-0.4,0.5-0.7,1-1,1.5C54.9,42,55,42.1,55.2,42.2z M58,42c-0.1-0.1-0.3-0.2-0.4-0.3
			c-0.4,0.5-0.7,1-1,1.5c0.1,0.1,0.3,0.2,0.4,0.3C57.3,43,57.7,42.5,58,42z M60.8,41c-0.4,0.6-0.8,1.1-1.2,1.7
			c0.1,0.1,0.2,0.2,0.3,0.2c0.4-0.6,0.8-1.1,1.2-1.7C61,41.2,60.9,41.1,60.8,41z M56.4,40.4c0.4-0.6,0.8-1.1,1.2-1.7
			c-0.1-0.1-0.2-0.2-0.3-0.2c-0.4,0.6-0.8,1.1-1.2,1.7C56.2,40.3,56.3,40.3,56.4,40.4z M56.4,48.1c0.3-0.5,0.6-0.9,1-1.4
			c-0.1-0.1-0.3-0.2-0.4-0.3c-0.3,0.5-0.6,0.9-1,1.4C56.1,47.9,56.3,48,56.4,48.1z M65.5,34.3c-0.5,0.7-1,1.4-1.5,2.1
			c0.1,0.1,0.2,0.1,0.3,0.2c0.5-0.7,1-1.4,1.5-2.1C65.7,34.4,65.6,34.4,65.5,34.3z M54.6,42.2c-0.3,0.5-0.7,1-1,1.4
			c0.1,0.1,0.3,0.2,0.4,0.3c0.3-0.5,0.7-0.9,1-1.4C54.8,42.4,54.7,42.3,54.6,42.2z M56.4,43.5c-0.3,0.5-0.7,1-1,1.4
			c0.1,0.1,0.3,0.2,0.4,0.3c0.3-0.5,0.7-0.9,1-1.4C56.6,43.7,56.5,43.6,56.4,43.5z M58.5,45c-0.1-0.1-0.3-0.2-0.4-0.3
			c-0.3,0.5-0.7,1-1,1.4c0.1,0.1,0.3,0.2,0.4,0.3C57.9,46,58.2,45.5,58.5,45z M58.7,44.7c0.4-0.5,0.7-1,1-1.5
			c-0.1-0.1-0.2-0.2-0.4-0.2c-0.4,0.5-0.7,1-1,1.5C58.5,44.5,58.6,44.6,58.7,44.7z M51.8,49.6c-0.1-0.1-0.2-0.2-0.3-0.2
			s-0.2,0-0.2,0c-0.2,0.3-0.5,0.7-0.7,1c0.2,0.1,0.3,0.2,0.5,0.3C51.3,50.3,51.5,50,51.8,49.6z M53.2,50.6c-0.3,0.4-0.5,0.8-0.8,1.1
			c0.2,0.1,0.3,0.2,0.4,0.3c0.3-0.4,0.5-0.7,0.8-1.1C53.4,50.8,53.3,50.7,53.2,50.6z M53.8,51c-0.3,0.4-0.5,0.7-0.8,1.1
			c0.2,0.1,0.3,0.2,0.5,0.3c0.3-0.4,0.5-0.7,0.8-1.1C54.1,51.2,53.9,51.1,53.8,51z M62.8,38.8c0.4-0.6,0.9-1.2,1.3-1.9
			c-0.1-0.1-0.2-0.1-0.3-0.2c-0.4,0.6-0.9,1.2-1.3,1.9C62.6,38.7,62.7,38.7,62.8,38.8z M60.3,34.3c-0.4,0.6-0.9,1.2-1.3,1.9
			c0.1,0.1,0.2,0.1,0.3,0.2c0.4-0.6,0.9-1.2,1.3-1.9C60.5,34.4,60.4,34.4,60.3,34.3z M50.7,48.9c-0.3,0.4-0.5,0.7-0.8,1.1
			c0.2,0.1,0.3,0.2,0.4,0.3c0.3-0.4,0.5-0.7,0.8-1.1C51,49.1,50.9,49,50.7,48.9z M50.1,48.4c-0.3,0.4-0.5,0.8-0.8,1.1
			c0.2,0.1,0.3,0.2,0.5,0.3c0.3-0.4,0.5-0.7,0.8-1.1C50.4,48.6,50.3,48.5,50.1,48.4z M52.6,45.9c-0.2-0.1-0.3-0.2-0.4-0.3
			c-0.3,0.4-0.6,0.8-0.9,1.2c0.2,0.1,0.3,0.2,0.4,0.3C52,46.7,52.3,46.3,52.6,45.9z M54.6,47.2c-0.3,0.4-0.6,0.8-0.9,1.2
			c0.2,0.1,0.3,0.2,0.4,0.3c0.3-0.4,0.6-0.8,0.9-1.2C54.8,47.4,54.7,47.3,54.6,47.2z M54.9,49.3c0.2,0.1,0.3,0.2,0.4,0.3
			c0.3-0.4,0.5-0.7,0.7-1.1c0.1-0.1,0.1-0.2-0.1-0.3c-0.1-0.1-0.2-0.1-0.3-0.2C55.5,48.5,55.2,48.9,54.9,49.3z M54.6,46.8
			c0.3-0.5,0.6-0.9,1-1.4c-0.1-0.1-0.3-0.2-0.4-0.3c-0.3,0.5-0.6,0.9-1,1.4C54.3,46.7,54.5,46.8,54.6,46.8z M51.4,48.9
			c0.3-0.4,0.5-0.7,0.8-1.1c-0.2-0.1-0.3-0.2-0.4-0.3c-0.3,0.4-0.5,0.7-0.8,1.1C51.1,48.7,51.2,48.8,51.4,48.9z M51.6,49
			c0.2,0.1,0.3,0.2,0.4,0.3c0.3-0.4,0.5-0.7,0.8-1.1c-0.2-0.1-0.3-0.2-0.4-0.3C52.1,48.3,51.8,48.6,51.6,49z M53.8,50.6
			c0.3-0.4,0.5-0.7,0.8-1.1c-0.1-0.1-0.3-0.2-0.4-0.3c-0.3,0.4-0.5,0.7-0.8,1.1C53.5,50.4,53.6,50.5,53.8,50.6z M65.8,27v-0.1
			c-0.1,0-0.2,0-0.3,0.1c-0.5,0.7-1,1.4-1.5,2.1c-0.1,0.2-0.1,0.3,0.1,0.3C64.7,28.7,65.2,27.9,65.8,27z M49.6,50.1
			c-0.2-0.1-0.3-0.2-0.5-0.3c-0.2,0.3-0.5,0.7-0.7,1c0.2,0.1,0.3,0.2,0.5,0.3C49.1,50.8,49.3,50.5,49.6,50.1z M52.1,53.4
			c0.2,0.1,0.3,0.2,0.5,0.3c0.2-0.3,0.5-0.7,0.7-1c-0.2-0.1-0.3-0.2-0.5-0.3C52.5,52.7,52.3,53.1,52.1,53.4z M50.2,50.6
			c-0.2-0.1-0.3-0.2-0.4-0.3c-0.2,0.4-0.5,0.7-0.7,1c0.2,0.1,0.3,0.2,0.4,0.3C49.7,51.2,50,50.9,50.2,50.6z M50.1,52
			c0.3-0.4,0.5-0.7,0.7-1c-0.2-0.1-0.3-0.2-0.4-0.3c-0.2,0.3-0.5,0.7-0.7,1C49.8,51.8,49.9,51.9,50.1,52z M51.9,53.3
			c0.2-0.3,0.5-0.7,0.7-1c-0.2-0.1-0.3-0.2-0.4-0.3c-0.2,0.3-0.5,0.7-0.7,1C51.6,53.1,51.7,53.2,51.9,53.3z M52.6,50.1
			c-0.3,0.4-0.5,0.8-0.8,1.1c0.2,0.1,0.3,0.2,0.4,0.3c0.3-0.4,0.5-0.7,0.8-1.1C52.8,50.3,52.7,50.2,52.6,50.1z M51.1,47
			c-0.3,0.4-0.5,0.7-0.8,1.1c0.2,0.1,0.3,0.2,0.5,0.3c0.3-0.4,0.5-0.7,0.8-1.1C51.4,47.3,51.2,47.2,51.1,47z M45.7,54.5
			c-0.6,0.7-0.6,1.1-0.1,1.3c0.2-0.3,0.4-0.6,0.7-0.9C46.1,54.7,45.9,54.6,45.7,54.5z M69.1,29.3L69.1,29.3
			c-0.6,0.8-1.2,1.5-1.7,2.3c0,0.1,0,0.2,0,0.3c0.1,0,0.2,0,0.2-0.1c0.5-0.7,1-1.5,1.5-2.2C69.2,29.5,69.1,29.4,69.1,29.3z
			 M62.5,31.8c0.5-0.7,0.9-1.3,1.4-2v-0.1c-0.1,0-0.3,0-0.3,0c-0.4,0.6-0.9,1.2-1.3,1.9C62.3,31.7,62.4,31.7,62.5,31.8z M65.9,34.2
			c0.4-0.6,0.9-1.2,1.3-1.8c0.1-0.2,0-0.3-0.1-0.3c-0.5,0.7-0.9,1.3-1.4,2C65.8,34.1,65.9,34.1,65.9,34.2z M49.5,57.1
			c-0.2,0.3-0.5,0.6-0.7,1c0.5,0.4,0.9,0.1,1.2-0.6C49.8,57.3,49.7,57.2,49.5,57.1z M54,46.8c-0.3,0.4-0.6,0.8-0.9,1.2
			c0.1,0.1,0.3,0.2,0.4,0.3c0.3-0.4,0.6-0.8,0.9-1.2C54.3,47,54.1,46.9,54,46.8z M53.2,50.1c0.3-0.4,0.5-0.7,0.8-1.1
			c-0.1-0.1-0.3-0.2-0.4-0.3c-0.3,0.4-0.5,0.7-0.8,1.1C52.9,50,53,50,53.2,50.1z M46.5,55c-0.2,0.3-0.4,0.6-0.7,1
			c0.2,0.1,0.3,0.2,0.4,0.3c0.2-0.3,0.4-0.6,0.7-1C46.7,55.2,46.6,55.1,46.5,55z M54.7,49.6c-0.3,0.4-0.5,0.7-0.8,1.1
			c0.2,0.1,0.3,0.2,0.4,0.3c0.3-0.4,0.5-0.7,0.8-1.1C55,49.8,54.9,49.7,54.7,49.6z M47.1,55.4c-0.2,0.2-0.3,0.4-0.4,0.6
			c-0.3,0.4-0.3,0.4,0.2,0.7c0,0,0,0,0.1,0c0.2-0.3,0.4-0.6,0.7-0.9C47.4,55.6,47.2,55.5,47.1,55.4z M48.2,57.6
			c0.1,0.1,0.2,0.1,0.3,0.2c0.1,0,0.2,0,0.2,0c0.2-0.3,0.4-0.6,0.6-0.9c-0.2-0.1-0.3-0.2-0.4-0.3C48.6,57,48.4,57.3,48.2,57.6z
			 M67.9,24.1C67.8,24.1,67.8,24.1,67.9,24.1c-0.2-0.1-0.3,0-0.3,0c-0.5,0.7-1.1,1.5-1.6,2.2c0,0.1,0,0.2,0,0.3
			c0.1,0,0.2-0.1,0.2-0.1c0.5-0.7,1-1.4,1.5-2.1C67.7,24.4,67.8,24.3,67.9,24.1z M47.3,52.3c-0.2,0.3-0.4,0.6-0.6,0.9
			c0.2,0.1,0.3,0.2,0.5,0.4c0.2-0.3,0.4-0.6,0.6-0.9C47.6,52.5,47.5,52.4,47.3,52.3z M70.2,27.7c-0.3,0.4-0.5,0.7-0.8,1.1
			c0,0.1,0,0.2-0.1,0.3c0.1,0,0.2-0.1,0.2-0.1c0.5-0.8,1-1.5,1.5-2.3c0-0.1,0-0.2,0-0.2c-0.1,0-0.2,0.1-0.2,0.1
			C70.7,26.9,70.4,27.3,70.2,27.7z M48.6,52.8c0.2-0.3,0.4-0.6,0.6-0.9c-0.2-0.1-0.3-0.2-0.4-0.3c-0.2,0.3-0.4,0.6-0.6,0.9
			C48.4,52.6,48.5,52.7,48.6,52.8z M51.7,55c0.2-0.3,0.4-0.6,0.7-0.9c-0.2-0.1-0.3-0.2-0.5-0.3c-0.2,0.3-0.4,0.6-0.7,0.9
			C51.4,54.7,51.6,54.8,51.7,55z M48.2,51.1c-0.2,0.3-0.4,0.6-0.7,0.9c0.2,0.1,0.3,0.2,0.5,0.3c0.2-0.3,0.4-0.6,0.7-0.9
			C48.5,51.3,48.4,51.2,48.2,51.1z M51.6,51.5c-0.2,0.4-0.5,0.7-0.7,1c0.2,0.1,0.3,0.2,0.4,0.3c0.2-0.3,0.5-0.7,0.7-1
			C51.8,51.7,51.7,51.6,51.6,51.5z M49.5,52c-0.2,0.3-0.4,0.6-0.7,0.9c0.2,0.1,0.3,0.2,0.4,0.3c0.2-0.3,0.4-0.6,0.7-0.9
			C49.8,52.2,49.6,52.1,49.5,52z M51.3,53.3c-0.2,0.3-0.4,0.6-0.6,0.9c0.2,0.1,0.3,0.2,0.4,0.3c0.2-0.3,0.4-0.6,0.6-0.9
			C51.6,53.5,51.4,53.4,51.3,53.3z M52.4,50c-0.1-0.1-0.3-0.2-0.4-0.3c-0.3,0.4-0.5,0.7-0.8,1.1c0.1,0.1,0.3,0.2,0.4,0.3
			C51.8,50.7,52.1,50.4,52.4,50z M50.9,56.1c0.2-0.3,0.4-0.6,0.6-0.9c-0.2-0.1-0.3-0.2-0.5-0.3c-0.2,0.3-0.4,0.6-0.6,0.9
			C50.6,55.9,50.8,56,50.9,56.1z M47.4,53.6c0.2,0.1,0.3,0.2,0.5,0.3c0.2-0.3,0.4-0.6,0.6-0.8c-0.2-0.1-0.3-0.2-0.5-0.3
			C47.8,53,47.6,53.3,47.4,53.6z M48.3,56.2c-0.2,0.3-0.4,0.6-0.7,0.9c0.2,0.1,0.3,0.2,0.4,0.3c0.2-0.3,0.4-0.6,0.7-0.9
			C48.5,56.4,48.4,56.3,48.3,56.2z M49.1,53.5c-0.2-0.1-0.3-0.2-0.5-0.3c-0.2,0.3-0.4,0.6-0.6,0.8c0.2,0.1,0.3,0.2,0.5,0.3
			C48.7,54.1,48.9,53.8,49.1,53.5z M50.4,54.4c-0.2,0.3-0.4,0.5-0.5,0.8c0,0.1,0,0.2,0.1,0.3s0.3,0.1,0.3,0c0.2-0.2,0.4-0.5,0.5-0.7
			C50.7,54.6,50.6,54.6,50.4,54.4z M47,53.8c-0.2-0.1-0.4-0.2-0.5-0.4c-0.2,0.3-0.4,0.5-0.6,0.8c0.2,0.1,0.4,0.3,0.5,0.4
			C46.7,54.3,46.8,54,47,53.8z M52.9,48.4c-0.2,0.4-0.5,0.7-0.8,1.1c0.1,0.1,0.2,0.2,0.4,0.3c0.3-0.4,0.5-0.7,0.8-1.1
			C53.2,48.5,53.1,48.5,52.9,48.4z M50.2,57.2c0.2-0.3,0.4-0.5,0.6-0.8c-0.2-0.1-0.3-0.2-0.5-0.4c-0.2,0.3-0.4,0.5-0.6,0.8
			C49.9,57,50,57.1,50.2,57.2z M50.4,54c0.2-0.3,0.4-0.6,0.6-0.9c-0.2-0.1-0.3-0.2-0.4-0.3c-0.2,0.3-0.4,0.6-0.6,0.9
			C50.2,53.9,50.3,53.9,50.4,54z M51,51.1c-0.3,0.4-0.5,0.7-0.7,1c0.1,0.1,0.3,0.2,0.4,0.3c0.2-0.4,0.5-0.7,0.7-1
			C51.2,51.3,51.1,51.2,51,51.1z M49.6,55.2c0.2-0.3,0.4-0.6,0.6-0.9c-0.1-0.1-0.3-0.2-0.4-0.3c-0.2,0.3-0.4,0.6-0.6,0.9
			C49.4,55,49.5,55.1,49.6,55.2z M47.7,55.4c0.2-0.3,0.4-0.5,0.6-0.8c-0.2-0.1-0.3-0.2-0.4-0.3c-0.2,0.3-0.4,0.5-0.6,0.8
			C47.4,55.2,47.5,55.3,47.7,55.4z M49.5,56.7c0.2-0.3,0.4-0.5,0.6-0.8c-0.2-0.1-0.3-0.2-0.4-0.3c-0.2,0.3-0.4,0.5-0.6,0.8
			C49.2,56.5,49.3,56.6,49.5,56.7z M47,56.8c0.2,0.1,0.3,0.2,0.4,0.3c0.2-0.3,0.4-0.6,0.7-0.9c-0.1-0.1-0.3-0.2-0.4-0.3
			C47.4,56.2,47.2,56.5,47,56.8z M47.1,55c0.2-0.3,0.4-0.5,0.6-0.8c-0.2-0.1-0.3-0.2-0.4-0.3c-0.2,0.3-0.4,0.5-0.6,0.8
			C46.8,54.8,46.9,54.9,47.1,55z M50.1,52.4c-0.2,0.3-0.4,0.6-0.6,0.9c0.1,0.1,0.3,0.2,0.4,0.3c0.2-0.3,0.4-0.6,0.6-0.9
			C50.3,52.6,50.2,52.5,50.1,52.4z M69.8,21.4C69.7,21.4,69.7,21.4,69.8,21.4c-0.1,0-0.2,0-0.3,0c-0.5,0.7-1,1.4-1.5,2.1
			c0,0.1,0,0.2-0.1,0.2c0.1,0,0.2-0.1,0.2-0.1c0.4-0.6,0.9-1.2,1.3-1.8C69.6,21.7,69.7,21.6,69.8,21.4z M71.3,26.1l0.1,0.1
			c0.2-0.2,0.4-0.5,0.6-0.8s0.4-0.6,0.6-0.9c0.5-0.7,0.5-0.7,0.4-0.9C72.4,24.5,71.8,25.3,71.3,26.1z M49,55.2
			c-0.2,0.3-0.4,0.5-0.6,0.8c0.1,0.1,0.3,0.2,0.4,0.3c0.2-0.3,0.4-0.5,0.6-0.8C49.3,55.4,49.2,55.3,49,55.2z M49.2,53.6
			c-0.2,0.3-0.4,0.6-0.6,0.9c0.1,0.1,0.3,0.2,0.4,0.3c0.2-0.3,0.4-0.6,0.6-0.9C49.5,53.8,49.4,53.7,49.2,53.6z M78.2,18.1
			c0.2,0.2,0.4,0.3,0.6,0.4c0.1-0.2,0.3-0.4,0.4-0.5c-0.2-0.1-0.4-0.2-0.5-0.4C78.4,17.8,78.3,17.9,78.2,18.1z M73.6,14.1
			c-0.2-0.1-0.4-0.3-0.5-0.4c-0.1,0.2-0.3,0.4-0.4,0.5c0.2,0.1,0.4,0.3,0.6,0.4C73.3,14.5,73.4,14.3,73.6,14.1z M79.7,16.2
			c0.2,0.1,0.4,0.3,0.6,0.4c0.1-0.2,0.3-0.4,0.4-0.6c-0.2-0.1-0.4-0.3-0.5-0.4C80,15.9,79.9,16.1,79.7,16.2z M74.5,12.5
			c0.1-0.2,0.2-0.4,0.4-0.6c-0.2-0.1-0.4-0.2-0.5-0.4c-0.1,0.2-0.3,0.4-0.4,0.5C74.1,12.3,74.3,12.4,74.5,12.5z M75.7,10.4
			c0.1-0.2,0.2-0.4,0.4-0.6c-0.2-0.1-0.4-0.2-0.5-0.3c-0.1,0.2-0.3,0.4-0.4,0.5C75.3,10.2,75.5,10.3,75.7,10.4z M81.3,14.4
			c0.2,0.1,0.4,0.3,0.5,0.4c0.1-0.2,0.3-0.4,0.4-0.5C81.7,13.7,81.7,13.7,81.3,14.4z M48.4,54.8c-0.2,0.3-0.4,0.5-0.6,0.8
			c0.1,0.1,0.3,0.2,0.4,0.3c0.2-0.3,0.4-0.5,0.6-0.8C48.7,54.9,48.6,54.8,48.4,54.8z M48.1,58.6c0.1-0.2,0.2-0.3,0.3-0.4
			c-0.2-0.1-0.3-0.2-0.4-0.3C47.7,58.2,47.7,58.2,48.1,58.6z M77.1,16.8c0.4-0.1,1.3-1,1.3-1.4C77.9,15.8,77.5,16.3,77.1,16.8z
			 M46,56.5c-0.1-0.1-0.3-0.2-0.4-0.3c-0.1,0.2-0.2,0.3-0.3,0.4C45.8,56.9,45.8,56.9,46,56.5z M75.7,13.6c-0.4,0.3-0.9,1.3-0.8,1.6
			C75.2,14.6,75.5,14.1,75.7,13.6z M41.4,63.1c0.3-0.2,0.2-0.3-0.1-0.7C41,62.7,41,62.7,41.4,63.1z M45.6,57.1
			c-0.5-0.2-0.5-0.2-0.7,0.1C45.5,57.4,45.5,57.4,45.6,57.1z M47.7,59.2c0.3-0.3,0.3-0.4-0.1-0.7C47.2,58.8,47.6,59,47.7,59.2z
			 M44.1,64.4c-0.6-0.2-0.6-0.2-0.7,0.2C43.9,64.7,43.9,64.7,44.1,64.4z M46.3,57.4c-0.5-0.3-0.5-0.3-0.6,0.1
			C45.9,57.5,46.1,57.9,46.3,57.4z M41.7,63.1c-0.2,0.2-0.2,0.3,0.2,0.6C42.2,63.5,42.1,63.4,41.7,63.1z M47.2,58.6
			c0.3-0.3,0.3-0.3-0.2-0.6C46.7,58.3,47.1,58.3,47.2,58.6z M43.3,64.2c-0.5-0.3-0.5-0.3-0.6,0C43.1,64.5,43.1,64.5,43.3,64.2z
			 M46.2,56.6c-0.1,0.1-0.1,0.2-0.1,0.3c0.5,0.2,0.5,0.2,0.6,0C46.5,56.8,46.4,56.7,46.2,56.6z M42.2,63.6c-0.1,0.1-0.1,0.2-0.2,0.3
			c0.1,0.1,0.3,0.2,0.4,0.3c0.1-0.1,0.1-0.2,0.2-0.3C42.5,63.7,42.4,63.7,42.2,63.6z M47.6,58c0.1-0.1,0.1-0.2,0.2-0.3
			c-0.2-0.1-0.3-0.2-0.4-0.3C47.2,57.8,47.5,57.8,47.6,58z M46.7,58c0.1-0.1,0.1-0.2,0.2-0.3c-0.1-0.1-0.3-0.2-0.4-0.3
			c-0.1,0.1-0.1,0.2-0.2,0.3C46.5,57.9,46.6,57.9,46.7,58z M80.2,13.4c0,0,0.1,0,0.1,0.1c0-0.1,0.1-0.2,0.1-0.3s-0.2-0.2-0.2-0.1
			c-0.1,0-0.2,0.1-0.3,0.2l0,0c0.1,0,0.2-0.1,0.3-0.1C80.3,13.2,80.2,13.3,80.2,13.4z M77.2,11.3C77.3,11.3,77.3,11.3,77.2,11.3
			c0.1-0.1,0.2-0.2,0.1-0.3l-0.2-0.1c-0.1,0-0.1,0.2-0.2,0.2c0,0,0,0,0.1,0c0.1-0.1,0.2-0.1,0.3-0.2C77.3,11.1,77.2,11.2,77.2,11.3z
			 M78.8,15.4L78.8,15.4c0.1,0,0.2-0.1,0.2-0.2c0-0.1-0.1-0.2-0.2-0.2s-0.2,0.1-0.3,0.2c0,0,0,0,0,0.1c0.1,0,0.2-0.1,0.3-0.1
			C78.9,15.2,78.8,15.3,78.8,15.4z M75.8,13.3C75.8,13.3,75.9,13.3,75.8,13.3c0.1-0.1,0.2-0.2,0.2-0.3l-0.2-0.1
			c-0.1,0-0.1,0.1-0.2,0.2c0,0,0,0,0.1,0s0.2-0.1,0.3-0.2C75.8,13.1,75.8,13.2,75.8,13.3z M47.1,57.5c0.1-0.2,0.1-0.2-0.1-0.3
			c-0.1,0-0.2,0-0.2,0v0.1C46.8,57.3,47,57.4,47.1,57.5z"/>
	</g>
	<path class="st2" d="M43.3,46.5H12.4c-1.5,0-2.7-1.2-2.7-2.7v-31c0-1.5,1.2-2.7,2.7-2.7h30.9c1.5,0,2.7,1.2,2.7,2.7v30.9
		C46,45.2,44.8,46.5,43.3,46.5z M12.4,11c-1,0-1.8,0.8-1.8,1.8v30.9c0,1,0.8,1.8,1.8,1.8h30.9c1,0,1.8-0.8,1.8-1.8V12.8
		c0-1-0.8-1.8-1.8-1.8H12.4z"/>
	<path class="st2" d="M58.3,53.1c-0.4,0-0.8-0.1-1.2-0.3c-0.7-0.3-1.1-0.9-1.4-1.6l-9.8-29.3c-0.5-1.4,0.3-3,1.7-3.4L77,8.7
		c0.7-0.2,1.4-0.2,2.1,0.1s1.1,0.9,1.4,1.6l9.8,29.3c0.2,0.7,0.2,1.4-0.1,2.1c-0.3,0.7-0.9,1.1-1.6,1.4L59.3,53
		C58.9,53,58.6,53.1,58.3,53.1z M77.8,9.4c-0.2,0-0.4,0-0.6,0.1l-29.3,9.8c-1,0.3-1.5,1.4-1.2,2.3l9.8,29.3c0.2,0.5,0.5,0.8,0.9,1.1
		c0.4,0.2,0.9,0.3,1.4,0.1l29.3-9.8c0.5-0.2,0.8-0.5,1.1-0.9c0.2-0.4,0.3-0.9,0.1-1.4l-9.8-29.3c-0.2-0.5-0.5-0.8-0.9-1.1
		C78.4,9.5,78.1,9.4,77.8,9.4z"/>
	<path class="st2" d="M56.5,91.5c-0.3,0-0.7-0.1-1.1-0.2L27,79.3c-1.4-0.6-2-2.2-1.5-3.6l12-28.5c0.3-0.7,0.8-1.2,1.5-1.5
		s1.4-0.3,2.1,0l28.5,12c1.4,0.6,2,2.2,1.5,3.6L59,89.8C58.6,90.8,57.6,91.5,56.5,91.5z M40,46.5c-0.2,0-0.5,0-0.7,0.1
		c-0.5,0.2-0.8,0.5-1,1l-12,28.5c-0.4,0.9,0,2,1,2.4l28.5,12c0.9,0.4,2,0,2.4-1l12-28.5c0.4-0.9,0-2-1-2.4l-28.5-12
		C40.5,46.5,40.2,46.5,40,46.5z"/>
	<path class="st2" d="M54.3,86c-0.4,0-0.7-0.1-1.1-0.2l-20.8-8.7c-1.4-0.6-2-2.2-1.5-3.6l8.7-20.8c0.6-1.4,2.2-2,3.6-1.5L64.1,60
		c0.7,0.3,1.2,0.8,1.5,1.5s0.3,1.4,0,2.1l-8.7,20.8c-0.3,0.7-0.8,1.2-1.5,1.5C55,85.9,54.6,86,54.3,86z M42.2,51.9
		c-0.7,0-1.4,0.4-1.7,1.1l-8.7,20.8c-0.4,0.9,0.1,2,1,2.4L53.6,85c0.5,0.2,1,0.2,1.4,0c0.5-0.2,0.8-0.5,1-1l8.7-20.8
		c0.2-0.5,0.2-1,0-1.4c-0.2-0.5-0.5-0.8-1-1L43,52.1C42.7,52,42.5,51.9,42.2,51.9z"/>
	<path class="st2" d="M60.9,47.8c-1.1,0-2.2-0.7-2.6-1.9l-7.1-21.4c-0.5-1.4,0.3-3,1.7-3.4L74.3,14c1.4-0.5,3,0.3,3.4,1.7l7.1,21.4
		c0.2,0.7,0.2,1.4-0.1,2.1c-0.3,0.7-0.9,1.1-1.6,1.4l-21.4,7.1C61.5,47.7,61.2,47.8,60.9,47.8z M75.2,14.7c-0.2,0-0.4,0-0.6,0.1
		l-21.4,7.1c-1,0.3-1.5,1.4-1.2,2.3l7.1,21.4c0.3,1,1.4,1.5,2.3,1.2l21.4-7.1c0.5-0.2,0.8-0.5,1.1-0.9c0.2-0.4,0.3-0.9,0.1-1.4
		L76.9,16C76.7,15.2,76,14.7,75.2,14.7z"/>
	<path class="st2" d="M39.1,42.3H16.6c-1.5,0-2.7-1.2-2.7-2.7V17c0-1.5,1.2-2.7,2.7-2.7h22.5c1.5,0,2.7,1.2,2.7,2.7v22.5
		C41.8,41.1,40.6,42.3,39.1,42.3z M16.6,15.2c-1,0-1.8,0.8-1.8,1.8v22.5c0,1,0.8,1.8,1.8,1.8h22.5c1,0,1.8-0.8,1.8-1.8V17
		c0-1-0.8-1.8-1.8-1.8H16.6z"/>
	<g class="st3">
		<path d="M18.7,37.8L26,18.4h3.2l7.3,19.4h-3.2l-1.9-4.9h-7.8l-1.9,4.9H18.7z M24.8,30.3h5.8l-2.9-8.2L24.8,30.3z"/>
	</g>
	<g class="st3">
		<path d="M65,41.8l-6.1-18.4l7-2.3c1.6-0.5,2.9-0.5,4.1,0.1s2.1,1.6,2.6,3.1c0.3,0.8,0.3,1.6,0.2,2.4c-0.1,0.8-0.5,1.5-1.2,2.1
			c0.7-0.1,1.4,0.1,2.1,0.4s1.2,0.7,1.7,1.3c0.4,0.5,0.8,1.1,1,1.7c0.5,1.5,0.4,3-0.2,4.3s-1.8,2.3-3.5,2.9L65,41.8z M64.2,30.1
			l4.1-1.4c0.7-0.2,1.2-0.7,1.4-1.3c0.2-0.6,0.2-1.3,0-2.1c-0.3-0.8-0.7-1.3-1.2-1.5c-0.6-0.3-1.3-0.3-2,0l-4,1.2L64.2,30.1z
			 M67,38.3l4.6-1.5c0.8-0.3,1.4-0.8,1.7-1.5c0.3-0.7,0.3-1.5,0.1-2.2c-0.2-0.7-0.7-1.3-1.5-1.8c-0.7-0.5-1.5-0.5-2.3-0.3L65,32.5
			L67,38.3z"/>
	</g>
	<g class="st3">
		<path d="M40,65.2c0.7-1.7,1.8-3.1,3.1-4.1c1.4-1.1,3-1.7,4.7-2c1.7-0.2,3.4,0,5.1,0.7c1.4,0.6,2.6,1.4,3.6,2.5s1.6,2.3,2,3.6
			l-2.8,0.8c-0.3-1-0.8-1.8-1.5-2.5c-0.7-0.7-1.4-1.3-2.4-1.7c-1.8-0.7-3.5-0.7-5.3,0c-1.8,0.8-3,2.1-3.8,3.9
			c-0.5,1.2-0.7,2.4-0.6,3.6c0.1,1.2,0.6,2.3,1.3,3.3s1.7,1.7,2.8,2.2c1,0.4,2,0.6,3,0.5s2-0.3,2.8-0.8l1.4,2.6
			c-1.2,0.7-2.6,1.1-4,1.2c-1.5,0.1-2.9-0.2-4.3-0.8c-1.7-0.7-3-1.7-4.1-3.1c-1-1.4-1.7-3-1.9-4.7S39.3,66.8,40,65.2z"/>
	</g>
</g>
<g id="Layer_2">
	<g>
		<path d="M4.2,70.6c0.2-1.1,0.4-2.2,0.7-3.2c1.6-6.1,6.8-10.7,13.1-11.4c4.1-0.5,7.3-2.3,9.4-5.9c0.4-0.7,0.7-1.5,1-2.3
			c2.5-6,8.5-9.3,14.9-8.3c2.7,0.4,5.2,1.3,7.5,2.7c0.2-0.2,0.4-0.4,0.7-0.6c8.8-8.6,17.7-17.1,26.5-25.7c0.4-0.4,0.5-0.8,0.5-1.4
			c-0.1-0.8,0.2-1.7,0.4-2.5c0.1,0,0.2,0,0.3,0c-0.3-0.3-0.7-0.6-0.9-1c-0.1-0.3-0.1-0.8,0-1.1c0.1-0.2,0.7-0.1,1,0
			c0.4,0.2,0.6,0.5,1,0.9c0.4-0.5,0.9-1.1,1.4-1.7c-0.1-0.1-0.4-0.4-0.6-0.7c-0.4-0.4-0.6-0.9-0.1-1.2C81.5,7,82,7.1,82.3,7.3
			c0.3,0.1,0.5,0.5,0.8,0.9c0.6-0.7,1-1.2,1.5-1.8c-0.2-0.6-1.6-1-0.7-1.9c0.9-0.9,1.3,0.5,1.7,0.6c1.1-0.1,1.9-0.5,2.6-0.3
			c1.7,0.5,3.6,1.1,4.9,2.1c0.9,0.7,1.1,2.3,1.6,3.5c0.5,1.2,0.9,2.4,0,3.5c0.3,0.8,1.7,1.2,0.8,2.1c-0.9,0.9-1.3-0.5-2.1-0.8
			c-0.4,0.5-0.9,1-1.3,1.6c0.2,0.5,1.6,0.9,0.7,1.9c-0.9,0.9-1.3-0.5-2.1-0.8c-0.4,0.5-0.8,1-1.3,1.6c0.2,0.6,1.7,1,0.7,1.9
			c-0.9,0.9-1.3-0.5-2-0.8c-0.9,0.7-1.9,1-3.1,0.6c-0.2-0.1-0.5,0.3-0.8,0.5c-5.5,5.7-11,11.3-16.5,17c-3.1,3.2-6.1,6.3-9.2,9.5
			c-0.2,0.2-0.4,0.4-0.4,0.5c0.8,2.3,1.8,4.4,2.3,6.7c1.4,5.8-0.8,11.5-5.5,14.7C54,70.7,53,71.2,52,71.6c-4.7,1.8-7.3,5.3-7.9,10.3
			c-1,7.3-6.6,12.8-13.9,13.7c-0.2,0-0.4,0.1-0.6,0.2c-1.2,0-2.4,0-3.6,0c-0.3-0.1-0.5-0.1-0.8-0.2C15.5,94,9,88.4,5.5,79.2
			c-0.6-1.6-0.8-3.4-1.3-5.1C4.2,73,4.2,71.8,4.2,70.6z M49.8,43.3c-2.1-1.2-4.2-2-6.6-2.3c-5.8-0.9-11,2-13.3,7.4
			c-0.6,1.4-1.2,2.7-2.1,3.9c-2.4,3.3-5.8,4.8-9.8,5.3c-2.8,0.4-5.3,1.5-7.4,3.4c-4.3,3.9-5.6,9-4.6,14.6c1.6,9.7,10,17.6,19.8,18.6
			c8.5,0.9,15.5-4.3,16.6-12.5c0.3-2.2,0.9-4.2,2.1-6.1c1.7-2.7,4.2-4.4,7.1-5.5c1.6-0.6,3.1-1.6,4.2-2.9c4.3-4.6,3.8-11.9,0.7-16.8
			c-0.1,0.1-0.2,0.1-0.3,0.2c-2.5,2.6-5,5.2-7.5,7.8c-0.2,0.2-0.4,0.7-0.4,1c0,4.6-3.3,8.1-7.9,8.3c-4,0.2-7.9-3-8.2-6.9
			c-0.5-5.2,3.1-9.2,8.3-9.2c0.3,0,0.6-0.1,0.8-0.2C44.3,48.6,47.1,46,49.8,43.3z M79.7,16.6C67.6,28.3,55.5,40.1,43.2,51.9
			c2.4,1,3.9,2.6,4.9,4.9C60,44.5,71.7,32.4,83.5,20.3C82.2,19,81,17.8,79.7,16.6z M87.5,6.3c-0.3,0.2-0.6,0.3-0.8,0.5
			c-2.1,2-4.1,4.1-6.1,6.1c-0.7,0.7-0.7,1.3,0,2.1c1.4,1.5,2.9,2.9,4.4,4.4c0.7,0.7,1.3,0.7,2.1,0c2-2,4-4,6.1-6.1
			c0.4-0.4,0.6-0.9,0.3-1.4c-0.3-0.8-0.7-1.5-0.8-2.4c-0.3-1.2-1-1.9-2.2-2.2C89.5,7.1,88.6,6.7,87.5,6.3z M40.3,66
			c3.5,0.1,6.5-2.7,6.6-6.3c0.1-3.5-2.7-6.5-6.3-6.7c-3.5-0.1-6.5,2.7-6.6,6.3C33.9,62.9,36.7,65.9,40.3,66z"/>
		<path d="M14.5,74.9c0.8-0.8,1.8-1.7,2.6-2.5c3.5,3.4,7,7,10.5,10.5c-0.8,0.8-1.7,1.8-2.6,2.6C21.6,82,18.1,78.5,14.5,74.9z
			 M16.6,75c2.8,2.8,5.5,5.5,8.3,8.3c0.2-0.2,0.3-0.3,0.4-0.4c-2.8-2.8-5.6-5.6-8.3-8.4C16.9,74.7,16.8,74.9,16.6,75z"/>
		<path d="M82.6,14.9c-0.3-0.2-0.6-0.4-0.7-0.6c-0.1-0.3,0-0.7,0.2-0.9c0.9-1,1.9-1.9,2.8-2.9c0.7-0.7,1.4-1.4,2.1-2.1
			c0.4-0.4,0.8-0.5,1.2-0.1c0.4,0.4,0.3,0.9-0.1,1.2c-1.6,1.6-3.3,3.3-4.9,4.9C83.1,14.6,82.9,14.7,82.6,14.9z"/>
		<path d="M85.9,18.3c-0.2-0.2-0.6-0.4-0.6-0.6c0-0.3,0.1-0.8,0.3-1c1.2-1.3,2.4-2.5,3.6-3.7c0.4-0.4,0.8-1,1.3-1.3
			c0.3-0.2,0.8-0.2,1.1-0.1c0.5,0.3,0.4,0.8,0,1.2c-1.7,1.7-3.4,3.4-5.1,5.1C86.4,18.1,86.2,18.1,85.9,18.3z"/>
		<path d="M45.7,59.5c0,2.9-2.4,5.3-5.3,5.3c-2.9,0-5.3-2.4-5.3-5.3c0-2.9,2.4-5.2,5.2-5.2C43.3,54.3,45.7,56.6,45.7,59.5z
			 M44.1,59.6c0-2-1.6-3.6-3.6-3.7c-2.1,0-3.7,1.6-3.7,3.6c0,2,1.7,3.7,3.7,3.7C42.5,63.2,44.1,61.6,44.1,59.6z"/>
	</g>
</g>
</svg>
