<?xml version="1.0" encoding="utf-8"?>
<!-- Generator: Adobe Illustrator 26.3.1, SVG Export Plug-In . SVG Version: 6.00 Build 0)  -->
<svg version="1.1" id="Layer_1" xmlns="http://www.w3.org/2000/svg" xmlns:xlink="http://www.w3.org/1999/xlink" x="0px" y="0px"
	 viewBox="0 0 300 131" style="enable-background:new 0 0 300 131;" xml:space="preserve">
<style type="text/css">
	.st0{fill:#ECE6E0;}
</style>
<g>
	<g>
		<path class="st0" d="M58.4,108.9c0.6,0.3,1.1,0.7,1.6,1.1s0.8,1,1,1.6c0.2,0.6,0.4,1.2,0.4,1.8c0,0.6-0.1,1.3-0.3,1.9
			s-0.5,1.1-0.9,1.6c-0.4,0.5-0.9,0.9-1.5,1.1c-0.6,0.3-1.3,0.4-2.1,0.4c-0.5,0-1,0-1.4-0.1c-0.4-0.1-0.7-0.2-0.9-0.3
			c-0.3-0.1-0.5-0.3-0.6-0.4c-0.2-0.1-0.3-0.3-0.4-0.4l0,1l-2.9,0l0-1.3l1.1,0l-0.1-11.3l-1.1,0l0-1.3l2.9,0l0.1,5.5
			c0.1-0.1,0.3-0.3,0.4-0.4c0.2-0.1,0.4-0.3,0.7-0.4c0.3-0.1,0.6-0.2,0.9-0.3c0.4-0.1,0.8-0.1,1.3-0.1
			C57.1,108.4,57.8,108.6,58.4,108.9z M53.2,114.8c0.2,0.4,0.4,0.7,0.7,1c0.3,0.3,0.7,0.5,1.1,0.7c0.4,0.2,0.8,0.3,1.3,0.3
			c0.5,0,0.9-0.1,1.3-0.3c0.4-0.2,0.7-0.4,1.1-0.7s0.5-0.7,0.7-1.1c0.2-0.4,0.3-0.8,0.3-1.3c0-0.5-0.1-0.9-0.3-1.3
			c-0.2-0.4-0.4-0.7-0.7-1s-0.7-0.5-1.1-0.7c-0.4-0.2-0.8-0.3-1.3-0.3c-0.5,0-0.9,0.1-1.3,0.3c-0.4,0.2-0.7,0.4-1.1,0.7
			c-0.3,0.3-0.5,0.7-0.7,1.1c-0.2,0.4-0.3,0.8-0.3,1.3C52.9,113.9,53,114.4,53.2,114.8z"/>
		<path class="st0" d="M64.8,110c-0.4,0.1-0.8,0.4-1.1,0.7l-0.9-1.1c0.4-0.4,0.9-0.7,1.5-0.9c0.6-0.2,1.3-0.3,1.9-0.3
			c0.5,0,1.1,0.1,1.6,0.2c0.5,0.1,1,0.4,1.4,0.7c0.4,0.3,0.7,0.7,1,1.1s0.4,1,0.4,1.6l0,5.1l1.4,0l0,1.1l-3.2,0v-0.7
			c-0.1,0.1-0.2,0.2-0.4,0.3c-0.1,0.1-0.3,0.2-0.5,0.3c-0.2,0.1-0.5,0.2-0.7,0.2c-0.3,0.1-0.7,0.1-1.1,0.1c-0.7,0-1.2-0.1-1.7-0.3
			c-0.5-0.2-0.9-0.4-1.2-0.7c-0.3-0.3-0.6-0.7-0.8-1.1s-0.3-0.8-0.3-1.3c0-0.4,0.1-0.9,0.3-1.3c0.2-0.4,0.4-0.8,0.8-1.1
			c0.3-0.3,0.7-0.6,1.2-0.7c0.5-0.2,1-0.3,1.7-0.3c0.4,0,0.7,0,1,0.1c0.3,0.1,0.6,0.1,0.8,0.3c0.2,0.1,0.4,0.2,0.5,0.3
			c0.1,0.1,0.3,0.2,0.4,0.3l0-0.9c0-0.3-0.1-0.7-0.2-0.9c-0.1-0.3-0.4-0.5-0.6-0.6c-0.3-0.2-0.5-0.3-0.9-0.4c-0.3-0.1-0.7-0.1-1-0.1
			C65.6,109.7,65.2,109.8,64.8,110z M64.3,116.3c0.4,0.3,1,0.5,1.8,0.5c0.9,0,1.5-0.2,1.9-0.6c0.4-0.4,0.6-0.8,0.6-1.3
			c0-0.5-0.2-0.9-0.7-1.3c-0.4-0.4-1.1-0.5-1.9-0.5c-0.8,0-1.4,0.2-1.8,0.5c-0.4,0.4-0.6,0.8-0.6,1.3
			C63.7,115.5,63.9,116,64.3,116.3z"/>
		<path class="st0" d="M73.1,104.1l2.9,0l0.1,12.8l1.1,0l0,1.1l-4.1,0l0-1.1l1.1,0l-0.1-11.7l-1.1,0L73.1,104.1z"/>
		<path class="st0" d="M79.9,114.5c0.1,0.4,0.4,0.8,0.7,1.1c0.3,0.3,0.7,0.6,1.1,0.7c0.5,0.2,1,0.3,1.6,0.3c0.6,0,1.1-0.1,1.5-0.4
			c0.4-0.2,0.7-0.5,1-0.7l1.1,1.2c-0.2,0.2-0.4,0.4-0.6,0.5c-0.2,0.2-0.5,0.3-0.8,0.5s-0.6,0.3-1,0.4c-0.3,0.1-0.7,0.1-1.2,0.1
			c-0.9,0-1.6-0.1-2.3-0.4c-0.7-0.3-1.2-0.7-1.6-1.1c-0.4-0.5-0.8-1-1-1.6c-0.2-0.6-0.3-1.2-0.3-1.8c0-0.6,0.1-1.2,0.3-1.8
			c0.2-0.6,0.5-1.1,1-1.6c0.4-0.5,1-0.9,1.6-1.1c0.6-0.3,1.4-0.4,2.2-0.5c0.5,0,0.9,0,1.2,0.1c0.3,0.1,0.6,0.2,0.9,0.3v-0.4l1.3,0
			l0,2.9l-1.3,0v-0.6c-0.2-0.1-0.4-0.3-0.8-0.5c-0.4-0.2-0.8-0.3-1.3-0.3c-0.6,0-1.1,0.1-1.5,0.3c-0.4,0.2-0.8,0.4-1.1,0.8
			c-0.3,0.3-0.5,0.7-0.7,1.1c-0.2,0.4-0.2,0.8-0.2,1.2C79.7,113.6,79.7,114.1,79.9,114.5z"/>
		<path class="st0" d="M97.5,115.1c-0.3,0.6-0.6,1.1-1.1,1.6c-0.5,0.5-1,0.8-1.6,1.1c-0.6,0.3-1.3,0.4-1.9,0.4c-0.7,0-1.3-0.1-2-0.4
			s-1.1-0.6-1.6-1.1c-0.5-0.5-0.8-1-1.1-1.6c-0.3-0.6-0.4-1.3-0.4-1.9c0-0.7,0.1-1.3,0.4-2s0.6-1.1,1.1-1.6c0.5-0.5,1-0.8,1.6-1.1
			c0.6-0.3,1.3-0.4,1.9-0.4c0.7,0,1.3,0.1,2,0.4s1.1,0.6,1.6,1.1c0.5,0.5,0.8,1,1.1,1.6c0.3,0.6,0.4,1.3,0.4,1.9
			C97.9,113.8,97.8,114.5,97.5,115.1z M89.8,114.5c0.2,0.4,0.4,0.7,0.7,1s0.7,0.5,1.1,0.7c0.4,0.2,0.8,0.3,1.3,0.3
			c0.5,0,0.9-0.1,1.3-0.3c0.4-0.2,0.7-0.4,1.1-0.7s0.5-0.7,0.7-1.1c0.2-0.4,0.3-0.8,0.3-1.3c0-0.5-0.1-0.9-0.3-1.3s-0.4-0.7-0.7-1
			c-0.3-0.3-0.7-0.5-1.1-0.7c-0.4-0.2-0.8-0.3-1.3-0.3c-0.5,0-0.9,0.1-1.3,0.3c-0.4,0.2-0.7,0.4-1.1,0.7c-0.3,0.3-0.5,0.7-0.7,1.1
			c-0.2,0.4-0.3,0.8-0.3,1.3C89.6,113.6,89.6,114.1,89.8,114.5z M92.8,106.9l-0.7-0.7l2.5-2.5l0.7,0.7L92.8,106.9z"/>
		<path class="st0" d="M99.1,116.7l1.1,0l-0.1-7.3l-1.1,0l0-1.1l2.9,0l0,0.9c0.1-0.1,0.3-0.3,0.4-0.4c0.2-0.1,0.3-0.3,0.6-0.4
			c0.2-0.1,0.5-0.2,0.8-0.3c0.3-0.1,0.6-0.1,1.1-0.1c1.1,0,2,0.3,2.6,0.9c0.6,0.6,1,1.4,1,2.5l0,5.3l1.1,0l0,1.1l-4.1,0l0-1.1l1.1,0
			l0-5.2c0-0.6-0.2-1-0.5-1.4c-0.4-0.3-0.8-0.5-1.4-0.5c-0.4,0-0.7,0.1-1,0.2c-0.3,0.1-0.5,0.3-0.8,0.5c-0.2,0.2-0.4,0.4-0.5,0.5
			c-0.1,0.2-0.2,0.4-0.3,0.5l0.1,5.5l1.1,0l0,1.1l-4.1,0L99.1,116.7z"/>
		<path class="st0" d="M122.3,103.7l3.4,0l0.1,12.6l1.1,0l0,1.3l-3,0l0-0.9c-0.3,0.3-0.7,0.6-1.2,0.8c-0.5,0.2-1.2,0.3-2.2,0.4
			c-0.7,0-1.4-0.1-2-0.4c-0.6-0.3-1.1-0.7-1.5-1.1c-0.4-0.5-0.7-1-1-1.6c-0.2-0.6-0.4-1.2-0.4-1.8s0.1-1.2,0.3-1.8
			c0.2-0.6,0.6-1.1,1-1.6c0.4-0.5,0.9-0.9,1.5-1.1c0.6-0.3,1.2-0.4,1.9-0.4c0.9,0,1.6,0.1,2.1,0.3s1,0.5,1.2,0.8l0-4.1l-1.5,0
			L122.3,103.7z M117.7,114.2c0.2,0.4,0.4,0.7,0.7,1s0.7,0.5,1.1,0.7c0.4,0.2,0.8,0.3,1.3,0.3c0.5,0,0.9-0.1,1.3-0.3
			c0.4-0.2,0.7-0.4,1.1-0.7s0.5-0.7,0.7-1.1c0.2-0.4,0.3-0.8,0.3-1.3c0-0.5-0.1-0.9-0.3-1.3c-0.2-0.4-0.4-0.7-0.7-1
			c-0.3-0.3-0.7-0.5-1.1-0.7c-0.4-0.2-0.8-0.3-1.3-0.3c-0.5,0-0.9,0.1-1.3,0.3c-0.4,0.2-0.7,0.4-1.1,0.7s-0.5,0.7-0.7,1.1
			c-0.2,0.4-0.3,0.8-0.3,1.3C117.4,113.4,117.5,113.8,117.7,114.2z"/>
		<path class="st0" d="M129.3,114.3c0.1,0.3,0.4,0.6,0.7,0.9c0.3,0.3,0.6,0.5,1.1,0.7c0.4,0.2,0.9,0.3,1.5,0.3
			c0.6,0,1.1-0.1,1.5-0.3c0.4-0.2,0.7-0.4,0.9-0.6l1.1,1.1c-0.2,0.2-0.4,0.4-0.7,0.5c-0.2,0.2-0.5,0.3-0.7,0.5
			c-0.3,0.1-0.6,0.2-0.9,0.3s-0.7,0.1-1.2,0.1c-0.9,0-1.6-0.1-2.3-0.4c-0.7-0.3-1.2-0.7-1.6-1.1s-0.8-1-1-1.6s-0.3-1.2-0.3-1.9
			c0-0.6,0.1-1.3,0.3-1.9c0.2-0.6,0.5-1.1,1-1.6c0.4-0.5,0.9-0.9,1.6-1.1c0.6-0.3,1.3-0.4,2.2-0.4c0.9,0,1.6,0.1,2.2,0.5
			c0.6,0.3,1.1,0.7,1.5,1.2c0.4,0.5,0.7,1.1,0.9,1.7c0.2,0.6,0.3,1.2,0.3,1.7c0,0.1,0,0.2,0,0.3c0,0.1,0,0.2,0,0.2l-8.1,0.1
			C129,113.7,129.1,114,129.3,114.3z M135.1,111.1c-0.1-0.3-0.3-0.6-0.6-0.9c-0.2-0.3-0.5-0.5-0.9-0.6c-0.4-0.2-0.8-0.2-1.3-0.2
			c-0.5,0-1,0.1-1.4,0.3s-0.7,0.4-1,0.7c-0.3,0.3-0.5,0.6-0.6,0.9c-0.1,0.3-0.2,0.6-0.2,0.9l6.3-0.1
			C135.3,111.7,135.2,111.4,135.1,111.1z"/>
		<path class="st0" d="M138.4,103.5l2.9,0l0.1,12.8l1.1,0l0,1.1l-4.1,0l0-1.1l1.1,0l-0.1-11.7l-1.1,0L138.4,103.5z"/>
		<path class="st0" d="M156.3,107.8l0,2.8l-1.3,0V110c-0.2-0.2-0.6-0.5-1-0.6c-0.4-0.2-0.9-0.3-1.4-0.3c-1.1,0-1.6,0.4-1.6,1.1
			c0,0.3,0.1,0.5,0.4,0.7c0.3,0.2,0.8,0.4,1.5,0.5c1.2,0.3,2.1,0.7,2.7,1.2c0.6,0.5,1,1.2,1,2.1c0,0.5-0.1,1-0.3,1.3
			c-0.2,0.4-0.5,0.7-0.8,0.9c-0.3,0.2-0.7,0.4-1.1,0.5c-0.4,0.1-0.9,0.2-1.3,0.2c-0.3,0-0.6,0-0.9-0.1c-0.3,0-0.5-0.1-0.7-0.1
			c-0.2-0.1-0.4-0.1-0.5-0.2c-0.1-0.1-0.3-0.2-0.4-0.3v0.5l-1.3,0l0-2.9l1.3,0v0.7c0.3,0.2,0.6,0.4,0.9,0.5s0.8,0.2,1.4,0.2
			c0.7,0,1.1-0.1,1.4-0.4s0.4-0.5,0.4-0.9c0-0.2,0-0.4-0.1-0.6c-0.1-0.2-0.2-0.3-0.4-0.4c-0.2-0.1-0.4-0.3-0.7-0.4
			c-0.3-0.1-0.7-0.2-1.2-0.3c-0.3-0.1-0.7-0.2-1.1-0.3c-0.4-0.1-0.7-0.3-1-0.5c-0.3-0.2-0.5-0.5-0.7-0.8c-0.2-0.3-0.3-0.7-0.3-1.1
			c0-0.4,0.1-0.8,0.3-1.1c0.2-0.3,0.4-0.6,0.7-0.8s0.7-0.4,1.1-0.5c0.4-0.1,0.8-0.2,1.3-0.2c0.6,0,1.1,0.1,1.5,0.2
			c0.4,0.1,0.7,0.3,0.9,0.5v-0.5L156.3,107.8z"/>
		<path class="st0" d="M167,116.1l1.1,0l0,1.1l-2.9,0l0-0.9c-0.1,0.1-0.2,0.2-0.4,0.4c-0.1,0.1-0.3,0.3-0.5,0.4
			c-0.2,0.1-0.5,0.2-0.8,0.3c-0.3,0.1-0.7,0.1-1.1,0.1c-1.1,0-2-0.3-2.7-0.9s-0.9-1.6-0.9-2.9l0-4.9l-1.1,0l0-1.1l2.9,0l0.1,6.1
			c0,0.7,0.2,1.3,0.5,1.6c0.4,0.4,0.8,0.6,1.5,0.6c0.4,0,0.8-0.1,1.1-0.3c0.3-0.2,0.6-0.3,0.8-0.6c0.2-0.2,0.4-0.4,0.5-0.6
			c0.1-0.2,0.2-0.3,0.2-0.4l-0.1-5.4l-1.1,0l0-1.1l2.9,0L167,116.1z"/>
		<path class="st0" d="M173.7,117.2l-4.1,0l0-1.1l1.1,0l-0.1-7.3l-1.1,0l0-1.1l2.9,0l0,1.2c0.1-0.2,0.3-0.4,0.5-0.6
			c0.2-0.2,0.4-0.3,0.7-0.5c0.3-0.1,0.6-0.3,1.1-0.3s0.9-0.1,1.5-0.1l0,1.7c-0.5,0-1,0.1-1.5,0.2s-0.8,0.3-1.2,0.5
			c-0.3,0.2-0.6,0.4-0.8,0.7c-0.2,0.3-0.3,0.6-0.3,0.9l0,4.8l1.1,0L173.7,117.2z"/>
	</g>
	<path class="st0" d="M289.9,14c0-1.6-1.2-3-3-3c-0.7,0-1.4,0.2-2,0.7c-4.5,4.2-9.4,5.9-13.7,6.1c-1.9-5.5-5.7-8-9.5-8
		c-1.7,0.2-6.3,1-6.3,5.4c0,0.2,0.1,6.6,11.1,8.3c0.1,0.8,0.2,1.7,0.2,2.7c0,8.5-4.7,18.8-17.2,18.8c-10.5,0-15.3-8.2-15.3-16.7
		c0-9,5.5-18.1,16.6-18.1c2.8,0,4.4,0.9,5.4,0.9c1.5,0,3-1.1,3-3c0-3.5-5.8-4-8.4-4c-15,0-22.7,12.3-22.7,24.2c0,0.5,0,0.9,0,1.4
		c-1.7,2.2-5,8.3-16.2,24.6V7.2c0-1.6-1.3-3.1-3-3.1c-1.7,0-3.1,1.4-3.1,3.1v2.9c-2.9-3.2-6.8-5.9-13.4-5.9
		c-13.2,0-20.9,11.8-20.9,23.5c0,0.6,0,1.1,0.1,1.7c-0.1,0.1-0.3,0.2-0.4,0.4c-7.8,11.4-16.3,15.3-22,15.3
		c-6.1,0-11.6-4.3-14.5-10.7c12.5-0.7,28.8-4.8,28.8-17.4c0-6.5-5.1-13.7-16.1-13.7c-7.7,0-20.7,5.6-20.7,21.6
		c0,1.5,0.1,2.9,0.3,4.3c-3.5,0.5-7.5,1.4-11.1,3.3c0-0.3,0-0.6,0-0.9c0-0.8,0.1-1.9,0.1-3.9c0-19.9-6.4-23-11.9-23.4
		c-6.4,0-11.3,4.6-14.7,9.5V7.2c0-1.8-1.4-3.1-3.1-3.1c-1.1,0-1.9,0.6-2.6,1.6c-2.4,4.5-9.9,17.1-14.3,24.1
		c-0.1,0.2-0.2,0.4-0.3,0.6c-6.1,10-10.2,14.6-16,14.6c-1.5,0-3.8-3.1-3.8-17.5c0-8.2,0.8-18.4,0.8-20.4c0-1.6-1.3-3-3-3
		c-1.6,0-3,1.3-3.1,3c0,0.8-0.1,1.7-0.1,2.7C41.2,6.7,37,4.1,31,4.1C17.6,4.1,10.1,18,10.1,29.3c0,11.8,7.5,21.6,18.8,21.6
		c7.4,0,13.2-3.4,16.8-6.4c1.4,3.8,4,6.4,7.8,6.4c10,0,15.9-8.7,21.5-18c0.1-0.2,0.2-0.4,0.3-0.6l8.4-13.8c0,34.5-0.1,70-0.1,76.3
		c0,1.6,1.2,3,3,3c1.6,0,3-1.3,3-3c0-5.8,0.1-32.6,0.1-68.9c4.3-8.4,8.7-15.7,14.7-15.7c3,0.2,5.8,3.3,5.8,17.3v3.9
		c0,2.6,0.1,4-0.8,6.7c-2.1,2.1-4.3,3.6-6,4.2c-2.7,1-4.9,1.1-6.7,0.7h0c-0.1,0-0.2,0-0.3,0c-1.7,0-3.1,1.4-3.1,3.1
		c0,1.3,0.7,2.3,1.8,2.8h0c2.9,0.7,6.4,0.5,10.3-0.9c3.6-1.3,7.8-4.3,10.6-8.8c3.2-3,8-4,12.4-4.6c3.4,9.7,11.6,16.3,20.8,16.3
		c7.4,0,16.2-4.2,24-13.7c2.7,7.7,8.8,13.8,17.1,13.8c6.4,0,11.8-2.8,15.6-5.7V63c-14.3,20.4-24.2,30.4-24.2,44.5
		c0,7.8,3.3,20.4,16.4,20.4c12.6,0,13.9-23.8,13.9-36.5c0-3.5-0.1-1.7-0.1-2.8V64.8c9.8-14.2,15.1-22.1,18.1-26.7
		c3,7.3,9.5,12.8,19.4,12.8c15.4,0,23.2-12.3,23.2-24.7c0-0.9-0.1-1.6-0.1-2.5c6.6-0.6,12.2-3.7,16.5-7.7
		C289.6,15.5,289.9,14.8,289.9,14z M262.1,15.9c0.6,0.1,1.3,0.6,1.4,0.7C263,16.4,262.5,16.2,262.1,15.9z M28.8,45
		c-7.7,0-12.7-7.1-12.7-15.7c0-9,5.6-19.2,14.9-19.2c6.7,0,10,4.4,12.9,8.7c-0.1,3.2-0.3,6.4-0.3,9.4v0.8c0,1.7,0.1,5.1,0.5,8.6
		C42.3,39.9,36.5,45,28.8,45z M147.5,9.1c7.4,0,10,4.3,10,7.7c0,7.3-11.8,11.1-24.5,11.5c-0.1-1.1-0.2-2.4-0.2-3.6
		C132.8,12.7,142.7,9.1,147.5,9.1z M190.3,45c-7.5,0-12.7-8.5-12.7-17.4s5.5-17.4,14.9-17.4c9.6,0,10.7,8.1,13.4,9.6v16.9
		C205.9,36.7,199.9,45,190.3,45z M198.1,121.9c-8.5,0-10.4-9-10.4-14.5c0-10.7,7.3-18.1,18.1-34c0,2.5,0.2,7.7,0.2,13.9
		C206.1,103.5,205.2,121.9,198.1,121.9z"/>
</g>
</svg>
